<?xml version="1.0" encoding="UTF-8" standalone="no"?>
<!DOCTYPE svg PUBLIC "-//W3C//DTD SVG 1.1//EN"
 "http://www.w3.org/Graphics/SVG/1.1/DTD/svg11.dtd">
<!-- Generated by graphviz version 2.40.1 (20161225.0304)
 -->
<!-- Title: dependencies Pages: 1 -->
<svg width="1136pt" height="284pt"
 viewBox="0.00 0.00 1136.00 284.00" xmlns="http://www.w3.org/2000/svg" xmlns:xlink="http://www.w3.org/1999/xlink">
<g id="graph0" class="graph" transform="scale(1 1) rotate(0) translate(4 280)">
<title>dependencies</title>
<polygon fill="#ffffff" stroke="transparent" points="-4,4 -4,-280 1132,-280 1132,4 -4,4"/>
<text text-anchor="start" x="543.0091" y="-42.4" font-family="sans-serif" font-weight="bold" font-size="14.00" fill="#000000">Legend</text>
<polygon fill="#ffffb3" stroke="transparent" points="330,-10 330,-30 350,-30 350,-10 330,-10"/>
<text text-anchor="start" x="353.629" y="-15.4" font-family="sans-serif" font-size="14.00" fill="#000000"> &#160;Declarations</text>
<polygon fill="#8dd3c7" stroke="transparent" points="443,-10 443,-30 463,-30 463,-10 443,-10"/>
<text text-anchor="start" x="466.7251" y="-15.4" font-family="sans-serif" font-size="14.00" fill="#000000"> &#160;Module</text>
<polygon fill="#80b1d3" stroke="transparent" points="529,-10 529,-30 549,-30 549,-10 529,-10"/>
<text text-anchor="start" x="552.7812" y="-15.4" font-family="sans-serif" font-size="14.00" fill="#000000"> &#160;Bootstrap</text>
<polygon fill="#fdb462" stroke="transparent" points="626,-10 626,-30 646,-30 646,-10 626,-10"/>
<text text-anchor="start" x="649.6732" y="-15.4" font-family="sans-serif" font-size="14.00" fill="#000000"> &#160;Providers</text>
<polygon fill="#fb8072" stroke="transparent" points="722,-10 722,-30 742,-30 742,-10 722,-10"/>
<text text-anchor="start" x="745.7258" y="-15.4" font-family="sans-serif" font-size="14.00" fill="#000000"> &#160;Exports</text>
<g id="clust1" class="cluster">
<title>cluster_AppModule</title>
<polygon fill="none" stroke="#000000" stroke-dasharray="1,5" points="8,-70 8,-268 348,-268 348,-70 8,-70"/>
</g>
<g id="clust3" class="cluster">
<title>cluster_AppModule_imports</title>
<polygon fill="none" stroke="#000000" points="16,-78 16,-130 340,-130 340,-78 16,-78"/>
</g>
<g id="clust5" class="cluster">
<title>cluster_AppModule_bootstrap</title>
<polygon fill="none" stroke="#000000" points="135,-208 135,-260 259,-260 259,-208 135,-208"/>
</g>
<g id="clust7" class="cluster">
<title>cluster_WcWindowModule</title>
<polygon fill="none" stroke="#000000" stroke-dasharray="1,5" points="356,-70 356,-268 1120,-268 1120,-70 356,-70"/>
</g>
<g id="clust9" class="cluster">
<title>cluster_WcWindowModule_imports</title>
<polygon fill="none" stroke="#000000" points="681,-78 681,-130 809,-130 809,-78 681,-78"/>
</g>
<g id="clust10" class="cluster">
<title>cluster_WcWindowModule_exports</title>
<polygon fill="none" stroke="#000000" points="364,-208 364,-260 1112,-260 1112,-208 364,-208"/>
</g>
<!-- BrowserModule -->
<g id="node1" class="node">
<title>BrowserModule</title>
<polygon fill="#8dd3c7" stroke="#000000" points="332.4734,-122 329.4734,-126 308.4734,-126 305.4734,-122 225.5266,-122 225.5266,-86 332.4734,-86 332.4734,-122"/>
<text text-anchor="middle" x="279" y="-99.8" font-family="Times,serif" font-size="14.00" fill="#000000">BrowserModule</text>
</g>
<!-- AppModule -->
<g id="node3" class="node">
<title>AppModule</title>
<polygon fill="#8dd3c7" stroke="#000000" points="238.6571,-187 235.6571,-191 214.6571,-191 211.6571,-187 155.3429,-187 155.3429,-151 238.6571,-151 238.6571,-187"/>
<text text-anchor="middle" x="197" y="-164.8" font-family="Times,serif" font-size="14.00" fill="#000000">AppModule</text>
</g>
<!-- BrowserModule&#45;&gt;AppModule -->
<g id="edge1" class="edge">
<title>BrowserModule&#45;&gt;AppModule</title>
<path fill="none" stroke="#000000" d="M232.1708,-122.1061C232.1708,-122.1061 232.1708,-140.991 232.1708,-140.991"/>
<polygon fill="#000000" stroke="#000000" points="228.6708,-140.9909 232.1708,-150.991 235.6708,-140.991 228.6708,-140.9909"/>
</g>
<!-- WcWindowModule.forRoot() -->
<g id="node2" class="node">
<title>WcWindowModule.forRoot()</title>
<polygon fill="#8dd3c7" stroke="#000000" points="207.5609,-122 204.5609,-126 183.5609,-126 180.5609,-122 24.4391,-122 24.4391,-86 207.5609,-86 207.5609,-122"/>
<text text-anchor="middle" x="116" y="-99.8" font-family="Times,serif" font-size="14.00" fill="#000000">WcWindowModule.forRoot()</text>
</g>
<!-- WcWindowModule.forRoot()&#45;&gt;AppModule -->
<g id="edge2" class="edge">
<title>WcWindowModule.forRoot()&#45;&gt;AppModule</title>
<path fill="none" stroke="#000000" d="M181.476,-122.1061C181.476,-122.1061 181.476,-140.991 181.476,-140.991"/>
<polygon fill="#000000" stroke="#000000" points="177.9761,-140.9909 181.476,-150.991 184.9761,-140.991 177.9761,-140.9909"/>
</g>
<!-- AppComponent  -->
<g id="node4" class="node">
<title>AppComponent </title>
<polygon fill="#80b1d3" stroke="#000000" points="251.439,-252 142.561,-252 142.561,-216 251.439,-216 251.439,-252"/>
<text text-anchor="middle" x="197" y="-229.8" font-family="Times,serif" font-size="14.00" fill="#000000">AppComponent </text>
</g>
<!-- AppModule&#45;&gt;AppComponent  -->
<g id="edge3" class="edge">
<title>AppModule&#45;&gt;AppComponent </title>
<path fill="none" stroke="#000000" stroke-dasharray="1,5" d="M197,-187.1061C197,-187.1061 197,-205.991 197,-205.991"/>
<polygon fill="#000000" stroke="#000000" points="193.5001,-205.9909 197,-215.991 200.5001,-205.991 193.5001,-205.9909"/>
</g>
<!-- CommonModule -->
<g id="node5" class="node">
<title>CommonModule</title>
<polygon fill="#8dd3c7" stroke="#000000" points="800.6681,-122 797.6681,-126 776.6681,-126 773.6681,-122 689.3319,-122 689.3319,-86 800.6681,-86 800.6681,-122"/>
<text text-anchor="middle" x="745" y="-99.8" font-family="Times,serif" font-size="14.00" fill="#000000">CommonModule</text>
</g>
<!-- WcWindowModule -->
<g id="node6" class="node">
<title>WcWindowModule</title>
<polygon fill="#8dd3c7" stroke="#000000" points="808.6909,-187 805.6909,-191 784.6909,-191 781.6909,-187 681.3091,-187 681.3091,-151 808.6909,-151 808.6909,-187"/>
<text text-anchor="middle" x="745" y="-164.8" font-family="Times,serif" font-size="14.00" fill="#000000">WcWindowModule</text>
</g>
<!-- CommonModule&#45;&gt;WcWindowModule -->
<g id="edge4" class="edge">
<title>CommonModule&#45;&gt;WcWindowModule</title>
<path fill="none" stroke="#000000" d="M745,-122.1061C745,-122.1061 745,-140.991 745,-140.991"/>
<polygon fill="#000000" stroke="#000000" points="741.5001,-140.9909 745,-150.991 748.5001,-140.991 741.5001,-140.9909"/>
</g>
<!-- WcWindowComponent  -->
<g id="node7" class="node">
<title>WcWindowComponent </title>
<polygon fill="#fb8072" stroke="#000000" points="1104.4741,-252 951.5259,-252 951.5259,-216 1104.4741,-216 1104.4741,-252"/>
<text text-anchor="middle" x="1028" y="-229.8" font-family="Times,serif" font-size="14.00" fill="#000000">WcWindowComponent </text>
</g>
<!-- WcWindowModule&#45;&gt;WcWindowComponent  -->
<g id="edge5" class="edge">
<title>WcWindowModule&#45;&gt;WcWindowComponent </title>
<path fill="none" stroke="#000000" stroke-dasharray="5,2" d="M808.8636,-169C892.3315,-169 1028,-169 1028,-169 1028,-169 1028,-205.8939 1028,-205.8939"/>
<polygon fill="#000000" stroke="#000000" points="1024.5001,-205.8938 1028,-215.8939 1031.5001,-205.8939 1024.5001,-205.8938"/>
</g>
<!-- WcWindowContentDirective  -->
<g id="node8" class="node">
<title>WcWindowContentDirective </title>
<polygon fill="#fb8072" stroke="#000000" points="933.5567,-252 750.4433,-252 750.4433,-216 933.5567,-216 933.5567,-252"/>
<text text-anchor="middle" x="842" y="-229.8" font-family="Times,serif" font-size="14.00" fill="#000000">WcWindowContentDirective </text>
</g>
<!-- WcWindowModule&#45;&gt;WcWindowContentDirective  -->
<g id="edge6" class="edge">
<title>WcWindowModule&#45;&gt;WcWindowContentDirective </title>
<path fill="none" stroke="#000000" stroke-dasharray="5,2" d="M779.4087,-187.1061C779.4087,-187.1061 779.4087,-205.991 779.4087,-205.991"/>
<polygon fill="#000000" stroke="#000000" points="775.9087,-205.9909 779.4087,-215.991 782.9087,-205.991 775.9087,-205.9909"/>
</g>
<!-- WcWindowTitleDirective  -->
<g id="node9" class="node">
<title>WcWindowTitleDirective </title>
<polygon fill="#fb8072" stroke="#000000" points="731.6631,-252 566.3369,-252 566.3369,-216 731.6631,-216 731.6631,-252"/>
<text text-anchor="middle" x="649" y="-229.8" font-family="Times,serif" font-size="14.00" fill="#000000">WcWindowTitleDirective </text>
</g>
<!-- WcWindowModule&#45;&gt;WcWindowTitleDirective  -->
<g id="edge7" class="edge">
<title>WcWindowModule&#45;&gt;WcWindowTitleDirective </title>
<path fill="none" stroke="#000000" stroke-dasharray="5,2" d="M706.618,-187.1061C706.618,-187.1061 706.618,-205.991 706.618,-205.991"/>
<polygon fill="#000000" stroke="#000000" points="703.1181,-205.9909 706.618,-215.991 710.1181,-205.991 703.1181,-205.9909"/>
</g>
<!-- WcWindowFooterDirective  -->
<g id="node10" class="node">
<title>WcWindowFooterDirective </title>
<polygon fill="#fb8072" stroke="#000000" points="547.7723,-252 372.2277,-252 372.2277,-216 547.7723,-216 547.7723,-252"/>
<text text-anchor="middle" x="460" y="-229.8" font-family="Times,serif" font-size="14.00" fill="#000000">WcWindowFooterDirective </text>
</g>
<!-- WcWindowModule&#45;&gt;WcWindowFooterDirective  -->
<g id="edge8" class="edge">
<title>WcWindowModule&#45;&gt;WcWindowFooterDirective </title>
<path fill="none" stroke="#000000" stroke-dasharray="5,2" d="M681.3952,-169C597.3992,-169 460,-169 460,-169 460,-169 460,-205.8939 460,-205.8939"/>
<polygon fill="#000000" stroke="#000000" points="456.5001,-205.8938 460,-215.8939 463.5001,-205.8939 456.5001,-205.8938"/>
</g>
</g>
</svg>
