<?xml version="1.0" encoding="UTF-8" standalone="no"?>
<!DOCTYPE svg PUBLIC "-//W3C//DTD SVG 1.1//EN"
 "http://www.w3.org/Graphics/SVG/1.1/DTD/svg11.dtd">
<!-- Generated by graphviz version 2.40.1 (20161225.0304)
 -->
<!-- Title: dependencies Pages: 1 -->
<svg width="909pt" height="284pt"
 viewBox="0.00 0.00 909.00 284.00" xmlns="http://www.w3.org/2000/svg" xmlns:xlink="http://www.w3.org/1999/xlink">
<g id="graph0" class="graph" transform="scale(1 1) rotate(0) translate(4 280)">
<title>dependencies</title>
<polygon fill="#ffffff" stroke="transparent" points="-4,4 -4,-280 905,-280 905,4 -4,4"/>
<text text-anchor="start" x="429.5091" y="-42.4" font-family="sans-serif" font-weight="bold" font-size="14.00" fill="#000000">Legend</text>
<polygon fill="#ffffb3" stroke="transparent" points="216.5,-10 216.5,-30 236.5,-30 236.5,-10 216.5,-10"/>
<text text-anchor="start" x="240.129" y="-15.4" font-family="sans-serif" font-size="14.00" fill="#000000"> &#160;Declarations</text>
<polygon fill="#8dd3c7" stroke="transparent" points="329.5,-10 329.5,-30 349.5,-30 349.5,-10 329.5,-10"/>
<text text-anchor="start" x="353.2251" y="-15.4" font-family="sans-serif" font-size="14.00" fill="#000000"> &#160;Module</text>
<polygon fill="#80b1d3" stroke="transparent" points="415.5,-10 415.5,-30 435.5,-30 435.5,-10 415.5,-10"/>
<text text-anchor="start" x="439.2812" y="-15.4" font-family="sans-serif" font-size="14.00" fill="#000000"> &#160;Bootstrap</text>
<polygon fill="#fdb462" stroke="transparent" points="512.5,-10 512.5,-30 532.5,-30 532.5,-10 512.5,-10"/>
<text text-anchor="start" x="536.1732" y="-15.4" font-family="sans-serif" font-size="14.00" fill="#000000"> &#160;Providers</text>
<polygon fill="#fb8072" stroke="transparent" points="608.5,-10 608.5,-30 628.5,-30 628.5,-10 608.5,-10"/>
<text text-anchor="start" x="632.2258" y="-15.4" font-family="sans-serif" font-size="14.00" fill="#000000"> &#160;Exports</text>
<g id="clust1" class="cluster">
<title>cluster_WcWindowModule</title>
<polygon fill="none" stroke="#000000" stroke-dasharray="1,5" points="8,-70 8,-268 893,-268 893,-70 8,-70"/>
</g>
<g id="clust2" class="cluster">
<title>cluster_WcWindowModule_declarations</title>
<polygon fill="none" stroke="#000000" points="152,-78 152,-130 885,-130 885,-78 152,-78"/>
</g>
<g id="clust7" class="cluster">
<title>cluster_WcWindowModule_imports</title>
<polygon fill="none" stroke="#000000" points="16,-78 16,-130 144,-130 144,-78 16,-78"/>
</g>
<g id="clust8" class="cluster">
<title>cluster_WcWindowModule_exports</title>
<polygon fill="none" stroke="#000000" points="77,-208 77,-260 825,-260 825,-208 77,-208"/>
</g>
<!-- WcWindowComponent -->
<g id="node1" class="node">
<title>WcWindowComponent</title>
<polygon fill="#ffffb3" stroke="#000000" points="877.4734,-122 728.5266,-122 728.5266,-86 877.4734,-86 877.4734,-122"/>
<text text-anchor="middle" x="803" y="-99.8" font-family="Times,serif" font-size="14.00" fill="#000000">WcWindowComponent</text>
</g>
<!-- WcWindowModule -->
<g id="node5" class="node">
<title>WcWindowModule</title>
<polygon fill="#8dd3c7" stroke="#000000" points="494.6909,-187 491.6909,-191 470.6909,-191 467.6909,-187 367.3091,-187 367.3091,-151 494.6909,-151 494.6909,-187"/>
<text text-anchor="middle" x="431" y="-164.8" font-family="Times,serif" font-size="14.00" fill="#000000">WcWindowModule</text>
</g>
<!-- WcWindowComponent&#45;&gt;WcWindowModule -->
<g id="edge1" class="edge">
<title>WcWindowComponent&#45;&gt;WcWindowModule</title>
<path fill="none" stroke="#000000" d="M772.875,-122.1061C772.875,-141.3391 772.875,-169 772.875,-169 772.875,-169 504.903,-169 504.903,-169"/>
<polygon fill="#000000" stroke="#000000" points="504.9031,-165.5001 494.903,-169 504.903,-172.5001 504.9031,-165.5001"/>
</g>
<!-- WcWindowContentDirective -->
<g id="node2" class="node">
<title>WcWindowContentDirective</title>
<polygon fill="#ffffb3" stroke="#000000" points="710.0562,-122 529.9438,-122 529.9438,-86 710.0562,-86 710.0562,-122"/>
<text text-anchor="middle" x="620" y="-99.8" font-family="Times,serif" font-size="14.00" fill="#000000">WcWindowContentDirective</text>
</g>
<!-- WcWindowContentDirective&#45;&gt;WcWindowModule -->
<g id="edge2" class="edge">
<title>WcWindowContentDirective&#45;&gt;WcWindowModule</title>
<path fill="none" stroke="#000000" d="M588.375,-122.027C588.375,-138.3976 588.375,-160 588.375,-160 588.375,-160 505.0104,-160 505.0104,-160"/>
<polygon fill="#000000" stroke="#000000" points="505.0105,-156.5001 495.0104,-160 505.0104,-163.5001 505.0105,-156.5001"/>
</g>
<!-- WcWindowTitleDirective -->
<g id="node3" class="node">
<title>WcWindowTitleDirective</title>
<polygon fill="#ffffb3" stroke="#000000" points="512.1629,-122 349.8371,-122 349.8371,-86 512.1629,-86 512.1629,-122"/>
<text text-anchor="middle" x="431" y="-99.8" font-family="Times,serif" font-size="14.00" fill="#000000">WcWindowTitleDirective</text>
</g>
<!-- WcWindowTitleDirective&#45;&gt;WcWindowModule -->
<g id="edge3" class="edge">
<title>WcWindowTitleDirective&#45;&gt;WcWindowModule</title>
<path fill="none" stroke="#000000" d="M431,-122.1061C431,-122.1061 431,-140.991 431,-140.991"/>
<polygon fill="#000000" stroke="#000000" points="427.5001,-140.9909 431,-150.991 434.5001,-140.991 427.5001,-140.9909"/>
</g>
<!-- WcWindowFooterDirective -->
<g id="node4" class="node">
<title>WcWindowFooterDirective</title>
<polygon fill="#ffffb3" stroke="#000000" points="332.2724,-122 159.7276,-122 159.7276,-86 332.2724,-86 332.2724,-122"/>
<text text-anchor="middle" x="246" y="-99.8" font-family="Times,serif" font-size="14.00" fill="#000000">WcWindowFooterDirective</text>
</g>
<!-- WcWindowFooterDirective&#45;&gt;WcWindowModule -->
<g id="edge4" class="edge">
<title>WcWindowFooterDirective&#45;&gt;WcWindowModule</title>
<path fill="none" stroke="#000000" d="M305.6524,-122.027C305.6524,-138.3976 305.6524,-160 305.6524,-160 305.6524,-160 357.2245,-160 357.2245,-160"/>
<polygon fill="#000000" stroke="#000000" points="357.2246,-163.5001 367.2245,-160 357.2245,-156.5001 357.2246,-163.5001"/>
</g>
<!-- WcWindowComponent  -->
<g id="node7" class="node">
<title>WcWindowComponent </title>
<polygon fill="#fb8072" stroke="#000000" points="817.4741,-252 664.5259,-252 664.5259,-216 817.4741,-216 817.4741,-252"/>
<text text-anchor="middle" x="741" y="-229.8" font-family="Times,serif" font-size="14.00" fill="#000000">WcWindowComponent </text>
</g>
<!-- WcWindowModule&#45;&gt;WcWindowComponent  -->
<g id="edge6" class="edge">
<title>WcWindowModule&#45;&gt;WcWindowComponent </title>
<path fill="none" stroke="#000000" stroke-dasharray="5,2" d="M494.7081,-178C570.643,-178 687.3957,-178 687.3957,-178 687.3957,-178 687.3957,-205.973 687.3957,-205.973"/>
<polygon fill="#000000" stroke="#000000" points="683.8958,-205.973 687.3957,-215.973 690.8958,-205.973 683.8958,-205.973"/>
</g>
<!-- WcWindowContentDirective  -->
<g id="node8" class="node">
<title>WcWindowContentDirective </title>
<polygon fill="#fb8072" stroke="#000000" points="646.5567,-252 463.4433,-252 463.4433,-216 646.5567,-216 646.5567,-252"/>
<text text-anchor="middle" x="555" y="-229.8" font-family="Times,serif" font-size="14.00" fill="#000000">WcWindowContentDirective </text>
</g>
<!-- WcWindowModule&#45;&gt;WcWindowContentDirective  -->
<g id="edge7" class="edge">
<title>WcWindowModule&#45;&gt;WcWindowContentDirective </title>
<path fill="none" stroke="#000000" stroke-dasharray="5,2" d="M478.9087,-187.1061C478.9087,-187.1061 478.9087,-205.991 478.9087,-205.991"/>
<polygon fill="#000000" stroke="#000000" points="475.4087,-205.9909 478.9087,-215.991 482.4087,-205.991 475.4087,-205.9909"/>
</g>
<!-- WcWindowTitleDirective  -->
<g id="node9" class="node">
<title>WcWindowTitleDirective </title>
<polygon fill="#fb8072" stroke="#000000" points="444.6631,-252 279.3369,-252 279.3369,-216 444.6631,-216 444.6631,-252"/>
<text text-anchor="middle" x="362" y="-229.8" font-family="Times,serif" font-size="14.00" fill="#000000">WcWindowTitleDirective </text>
</g>
<!-- WcWindowModule&#45;&gt;WcWindowTitleDirective  -->
<g id="edge8" class="edge">
<title>WcWindowModule&#45;&gt;WcWindowTitleDirective </title>
<path fill="none" stroke="#000000" stroke-dasharray="5,2" d="M406.118,-187.1061C406.118,-187.1061 406.118,-205.991 406.118,-205.991"/>
<polygon fill="#000000" stroke="#000000" points="402.6181,-205.9909 406.118,-215.991 409.6181,-205.991 402.6181,-205.9909"/>
</g>
<!-- WcWindowFooterDirective  -->
<g id="node10" class="node">
<title>WcWindowFooterDirective </title>
<polygon fill="#fb8072" stroke="#000000" points="260.7723,-252 85.2277,-252 85.2277,-216 260.7723,-216 260.7723,-252"/>
<text text-anchor="middle" x="173" y="-229.8" font-family="Times,serif" font-size="14.00" fill="#000000">WcWindowFooterDirective </text>
</g>
<!-- WcWindowModule&#45;&gt;WcWindowFooterDirective  -->
<g id="edge9" class="edge">
<title>WcWindowModule&#45;&gt;WcWindowFooterDirective </title>
<path fill="none" stroke="#000000" stroke-dasharray="5,2" d="M367.1861,-178C302.0272,-178 210.375,-178 210.375,-178 210.375,-178 210.375,-205.973 210.375,-205.973"/>
<polygon fill="#000000" stroke="#000000" points="206.8751,-205.973 210.375,-215.973 213.8751,-205.973 206.8751,-205.973"/>
</g>
<!-- CommonModule -->
<g id="node6" class="node">
<title>CommonModule</title>
<polygon fill="#8dd3c7" stroke="#000000" points="135.6681,-122 132.6681,-126 111.6681,-126 108.6681,-122 24.3319,-122 24.3319,-86 135.6681,-86 135.6681,-122"/>
<text text-anchor="middle" x="80" y="-99.8" font-family="Times,serif" font-size="14.00" fill="#000000">CommonModule</text>
</g>
<!-- CommonModule&#45;&gt;WcWindowModule -->
<g id="edge5" class="edge">
<title>CommonModule&#45;&gt;WcWindowModule</title>
<path fill="none" stroke="#000000" d="M110.4739,-122.1061C110.4739,-141.3391 110.4739,-169 110.4739,-169 110.4739,-169 357.2911,-169 357.2911,-169"/>
<polygon fill="#000000" stroke="#000000" points="357.2912,-172.5001 367.2911,-169 357.2911,-165.5001 357.2912,-172.5001"/>
</g>
</g>
</svg>
